<?xml version="1.0" standalone="no"?><svg xmlns="http://www.w3.org/2000/svg" viewBox="0 0 1440 320"><path fill="#c4ba9e" fill-opacity="1" d="M0,192L16,165.3C32,139,64,85,96,74.7C128,64,160,96,192,122.7C224,149,256,171,288,202.7C320,235,352,277,384,245.3C416,213,448,107,480,85.3C512,64,544,128,576,149.3C608,171,640,149,672,133.3C704,117,736,107,768,128C800,149,832,203,864,202.7C896,203,928,149,960,128C992,107,1024,117,1056,154.7C1088,192,1120,256,1152,277.3C1184,299,1216,277,1248,240C1280,203,1312,149,1344,138.7C1376,128,1408,160,1424,176L1440,192L1440,320L1424,320C1408,320,1376,320,1344,320C1312,320,1280,320,1248,320C1216,320,1184,320,1152,320C1120,320,1088,320,1056,320C1024,320,992,320,960,320C928,320,896,320,864,320C832,320,800,320,768,320C736,320,704,320,672,320C640,320,608,320,576,320C544,320,512,320,480,320C448,320,416,320,384,320C352,320,320,320,288,320C256,320,224,320,192,320C160,320,128,320,96,320C64,320,32,320,16,320L0,320Z"></path></svg>